<?xml version="1.0" encoding="utf-8"?>
<!-- Generator: Adobe Illustrator 23.0.5, SVG Export Plug-In . SVG Version: 6.00 Build 0)  -->
<svg version="1.1" id="Layer_1" xmlns="http://www.w3.org/2000/svg" xmlns:xlink="http://www.w3.org/1999/xlink" x="0px" y="0px"
	 viewBox="0 0 975.92 260.66" style="enable-background:new 0 0 975.92 260.66;" xml:space="preserve">
<style type="text/css">
	.st0{fill:#EA4648;}
	.st1{fill:#E9E9E9;}
	.st2{fill:#54ACD5;}
	.st3{fill:#FFCF2D;}
	.st4{fill:#AFDDF7;}
	.st5{fill:#75C26E;}
	.st6{fill:#231F20;}
	.st7{fill:none;}
	.st8{fill:#F37984;}
	.st9{font-family:'AgencyFB-Reg';}
	.st10{font-size:113px;}
</style>
<g>
	<path class="st0" d="M251.2,50.7h-10.98v14.79c0,2.78-2.5,4.99-5.54,5.09c-3.04,0.1-5.65-2.21-5.76-4.9v-0.1V50.7h-11.3v14.79
		c0,2.78-2.5,4.99-5.54,5.09c-3.04,0.1-5.65-2.21-5.76-4.9v-0.1V50.7h-11.3v14.79c0,2.78-2.5,4.99-5.54,5.09
		c-3.04,0.1-5.65-2.21-5.76-4.9v-0.1V50.7H82.87v14.79c0,2.78-2.5,4.99-5.65,4.99c-3.15,0-5.65-2.21-5.65-4.99V50.7H60.38v14.79
		c0,2.78-2.5,4.99-5.65,4.99c-3.15,0-5.65-2.21-5.65-4.99V50.7h-11.3v14.79c0,2.78-2.5,4.99-5.65,4.99c-3.15,0-5.65-2.21-5.65-4.99
		V50.7H16.04c-3.7,0-6.63,2.59-6.63,5.86v36.1c0,3.26,2.93,5.86,6.63,5.86H251.2c3.7,0,6.63-2.59,6.63-5.86v-36.1
		C257.83,53.3,254.9,50.7,251.2,50.7z"/>
	<path class="st1" d="M143.95,197.03c0-29.48,27.06-53.29,60.31-53.29c18.91,0,36.73,7.78,48.14,21.12V98.52H14.95v145.95
		c0,3.26,2.94,5.86,6.63,5.86h182.67C171,250.32,143.95,226.51,143.95,197.03z"/>
	<path class="st2" d="M264.57,197.03c0,29.43-27,53.29-60.31,53.29c-33.31,0-60.31-23.86-60.31-53.29s27-53.29,60.31-53.29
		C237.56,143.74,264.57,167.6,264.57,197.03z"/>
	<path class="st3" d="M250.98,197.03c0,22.8-20.92,41.29-46.73,41.29c-25.81,0-46.73-18.49-46.73-41.29s20.92-41.29,46.73-41.29
		C230.06,155.75,250.98,174.23,250.98,197.03z"/>
	<path class="st1" d="M209.69,197.03c0,2.65-2.43,4.8-5.43,4.8c-3,0-5.43-2.15-5.43-4.8s2.43-4.8,5.43-4.8
		C207.26,192.23,209.69,194.38,209.69,197.03z"/>
	<path class="st1" d="M32.12,30.92c3.15,0,5.65,2.21,5.65,4.99v29.57c0,2.78-2.5,4.99-5.65,4.99c-3.15,0-5.65-2.21-5.65-4.99V35.82
		C26.47,33.13,29.08,30.92,32.12,30.92z"/>
	<path class="st1" d="M54.73,30.92c3.15,0,5.65,2.21,5.65,4.99v29.57c0,2.78-2.5,4.99-5.65,4.99c-3.15,0-5.65-2.21-5.65-4.99V35.82
		C49.08,33.13,51.58,30.92,54.73,30.92z"/>
	<path class="st1" d="M77.33,30.92c3.15,0,5.65,2.21,5.65,4.99v29.57c0,2.78-2.5,4.99-5.65,4.99c-3.15,0-5.65-2.21-5.65-4.99V35.82
		C71.68,33.13,74.18,30.92,77.33,30.92z"/>
	<path class="st1" d="M189.37,30.92c3.15,0,5.65,2.21,5.65,4.99v29.57c0,2.78-2.5,4.99-5.65,4.99c-3.15,0-5.65-2.21-5.65-4.99V35.82
		C183.72,33.13,186.33,30.92,189.37,30.92z"/>
	<path class="st1" d="M211.97,30.92c3.15,0,5.65,2.21,5.65,4.99v29.57c0,2.78-2.5,4.99-5.65,4.99c-3.15,0-5.65-2.21-5.65-4.99V35.82
		C206.32,33.13,208.82,30.92,211.97,30.92z"/>
	<path class="st1" d="M234.57,30.92c3.15,0,5.65,2.21,5.65,4.99v29.57c0,2.78-2.5,4.99-5.65,4.99c-3.15,0-5.65-2.21-5.65-4.99V35.82
		C228.92,33.13,231.42,30.92,234.57,30.92z"/>
	<path class="st4" d="M110.58,117.82h12.28c2.72,0,5,1.92,5,4.42v10.85c0,2.4-2.17,4.42-5,4.42h-12.28c-2.72,0-5-1.92-5-4.42v-10.85
		C105.58,119.74,107.76,117.82,110.58,117.82z"/>
	<path class="st4" d="M143.84,117.82h12.28c2.72,0,5,1.92,5,4.42v10.85c0,2.4-2.17,4.42-5,4.42h-12.28c-2.72,0-5-1.92-5-4.42v-10.85
		C138.84,119.74,141.12,117.82,143.84,117.82z"/>
	<path class="st5" d="M177.2,117.82h12.28c2.72,0,5,1.92,5,4.42v10.85c0,2.4-2.17,4.42-5,4.42H177.2c-2.72,0-5-1.92-5-4.42v-10.85
		C172.2,119.74,174.37,117.82,177.2,117.82z"/>
	<path class="st5" d="M43.97,147.2h12.28c2.72,0,5,1.92,5,4.42v10.85c0,2.4-2.17,4.42-5,4.42H43.97c-2.72,0-5-1.92-5-4.42v-10.85
		C38.97,149.22,41.14,147.2,43.97,147.2z"/>
	<path class="st5" d="M77.22,147.2H89.5c2.72,0,5,1.92,5,4.42v10.85c0,2.4-2.17,4.42-5,4.42H77.22c-2.72,0-5-1.92-5-4.42v-10.85
		C72.22,149.22,74.51,147.2,77.22,147.2z"/>
	<path class="st5" d="M110.58,147.2h12.28c2.72,0,5,1.92,5,4.42v10.85c0,2.4-2.17,4.42-5,4.42h-12.28c-2.72,0-5-1.92-5-4.42v-10.85
		C105.58,149.22,107.76,147.2,110.58,147.2z"/>
	<path class="st4" d="M43.97,176.68h12.28c2.72,0,5,1.92,5,4.42v10.85c0,2.4-2.17,4.42-5,4.42H43.97c-2.72,0-5-1.92-5-4.42V181.1
		C38.97,178.6,41.14,176.68,43.97,176.68z"/>
	<path class="st4" d="M77.22,176.68H89.5c2.72,0,5,1.92,5,4.42v10.85c0,2.4-2.17,4.42-5,4.42H77.22c-2.72,0-5-1.92-5-4.42V181.1
		C72.22,178.6,74.51,176.68,77.22,176.68z"/>
	<path class="st4" d="M110.58,176.68h12.28c2.72,0,5,1.92,5,4.42v10.85c0,2.4-2.17,4.42-5,4.42h-12.28c-2.72,0-5-1.92-5-4.42V181.1
		C105.58,178.6,107.76,176.68,110.58,176.68z"/>
	<path class="st4" d="M43.97,206.06h12.28c2.72,0,5,1.92,5,4.42v10.85c0,2.4-2.17,4.42-5,4.42H43.97c-2.72,0-5-1.92-5-4.42v-10.85
		C38.97,208.08,41.14,206.06,43.97,206.06z"/>
	<path class="st4" d="M77.22,206.06H89.5c2.72,0,5,1.92,5,4.42v10.85c0,2.4-2.17,4.42-5,4.42H77.22c-2.72,0-5-1.92-5-4.42v-10.85
		C72.22,208.08,74.51,206.06,77.22,206.06z"/>
	<path class="st4" d="M110.58,206.06h12.28c2.72,0,5,1.92,5,4.42v10.85c0,2.4-2.17,4.42-5,4.42h-12.28c-2.72,0-5-1.92-5-4.42v-10.85
		C105.58,208.08,107.76,206.06,110.58,206.06z"/>
	<path class="st5" d="M210.45,117.82h12.28c2.72,0,5,1.92,5,4.42v10.85c0,2.4-2.17,4.42-5,4.42h-12.28c-2.72,0-5-1.92-5-4.42v-10.85
		C205.56,119.74,207.73,117.82,210.45,117.82z"/>
	<path class="st4" d="M161.11,159.88v-8.26c0-2.4-2.28-4.42-5-4.42h-12.28c-2.72,0-5,2.02-5,4.42v10.85c0,2.4,2.28,4.42,5,4.42
		h10.76C156.55,164.39,158.72,161.99,161.11,159.88z"/>
	<path class="st2" d="M176.98,11.05h-1.95V9.32c0-1.34-1.19-2.4-2.72-2.4s-2.72,1.06-2.72,2.4v1.73h-1.96
		c-1.52,0-2.72,1.06-2.72,2.4c0,1.34,1.19,2.4,2.72,2.4h1.96v1.73c0,1.34,1.19,2.4,2.72,2.4s2.72-1.06,2.72-2.4v-1.73h1.95
		c1.52,0,2.72-1.06,2.72-2.4C179.7,12.11,178.5,11.05,176.98,11.05z"/>
	<path class="st3" d="M152.31,29.96c0-0.19-0.11-0.29-0.11-0.48c-0.11-0.1-0.11-0.29-0.22-0.38c-0.11-0.1-0.22-0.29-0.32-0.38
		c-1.09-0.86-2.72-0.86-3.8,0c-0.11,0.1-0.22,0.19-0.33,0.38c-0.22,0.29-0.32,0.58-0.44,0.86c-0.11,0.29-0.11,0.67,0,0.96
		c0,0.19,0.11,0.29,0.11,0.48c0.11,0.19,0.11,0.29,0.22,0.38c0.11,0.1,0.22,0.29,0.33,0.38c1.09,0.96,2.72,0.96,3.8,0
		c0.11-0.1,0.22-0.19,0.32-0.38c0.11-0.1,0.22-0.29,0.22-0.38c0.11-0.1,0.11-0.29,0.11-0.48C152.31,30.54,152.31,30.25,152.31,29.96
		z"/>
	<path class="st5" d="M102.11,19.5c-3.59-0.58-6.41-3.07-7.17-6.34c0-0.1-0.11-0.1-0.22-0.1c-0.11,0-0.11,0.1-0.11,0.1
		c-0.65,3.17-3.48,5.67-7.17,6.34c-0.11,0-0.11,0.1-0.11,0.19c0,0.1,0.11,0.1,0.11,0.1c3.58,0.58,6.41,3.07,7.17,6.34
		c0,0.1,0.11,0.1,0.22,0.1s0.11-0.1,0.11-0.1c0.65-3.17,3.48-5.67,7.17-6.34c0.11,0,0.11-0.1,0.11-0.19
		C102.22,19.5,102.22,19.5,102.11,19.5z"/>
	<g>
		<path class="st6" d="M32.12,72.88c-4.57,0-8.37-3.26-8.37-7.39V35.82c0-4.03,3.7-7.39,8.37-7.39c4.67,0,8.37,3.26,8.37,7.39v29.67
			C40.49,69.52,36.8,72.88,32.12,72.88z M32.12,33.32c-1.63,0-2.94,1.15-2.94,2.59v29.57c0,1.44,1.31,2.59,2.94,2.59
			c1.63,0,2.93-1.15,2.93-2.59V35.82C35.06,34.48,33.75,33.32,32.12,33.32z"/>
		<path class="st6" d="M54.73,72.88c-4.56,0-8.37-3.26-8.37-7.39V35.82c0-4.03,3.8-7.39,8.48-7.3c4.56,0,8.26,3.26,8.26,7.3v29.67
			C63.1,69.52,59.29,72.88,54.73,72.88z M54.73,33.32c-1.63,0-2.93,1.15-2.93,2.59v29.57c0,1.44,1.41,2.59,2.93,2.5
			c1.52,0,2.83-1.15,2.83-2.5V35.82C57.66,34.48,56.36,33.32,54.73,33.32z"/>
		<path class="st6" d="M77.33,72.88c-4.56,0-8.37-3.26-8.37-7.39V35.82c0-4.03,3.69-7.39,8.37-7.39s8.37,3.26,8.37,7.39v29.67
			C85.59,69.52,81.89,72.88,77.33,72.88z M77.33,33.32c-1.63,0-2.93,1.15-2.93,2.59v29.57c0,1.44,1.3,2.59,2.93,2.59
			s2.93-1.15,2.93-2.59V35.82C80.16,34.48,78.85,33.32,77.33,33.32z"/>
		<path class="st6" d="M189.37,72.88c-4.56,0-8.37-3.26-8.37-7.39V35.82c0-4.03,3.8-7.39,8.47-7.3c4.57,0,8.26,3.26,8.26,7.3v29.67
			C197.74,69.52,194.04,72.88,189.37,72.88z M189.37,33.32c-1.63,0-2.93,1.15-2.93,2.59v29.57c0,1.44,1.41,2.59,2.93,2.5
			c1.52,0,2.82-1.15,2.82-2.5V35.82C192.3,34.48,191,33.32,189.37,33.32z"/>
		<path class="st6" d="M211.97,72.88c-4.57,0-8.37-3.26-8.37-7.39V35.82c0-4.03,3.8-7.39,8.48-7.3c4.56,0,8.26,3.26,8.26,7.3v29.67
			C220.34,69.52,216.54,72.88,211.97,72.88z M211.97,33.32c-1.63,0-2.94,1.15-2.94,2.59v29.57c0,1.44,1.41,2.59,2.94,2.5
			c1.52,0,2.82-1.15,2.82-2.5V35.82C214.91,34.48,213.6,33.32,211.97,33.32z"/>
		<path class="st6" d="M234.57,72.88c-4.56,0-8.37-3.26-8.37-7.39V35.82c0-4.03,3.8-7.39,8.48-7.3c4.56,0,8.26,3.26,8.26,7.3v29.67
			C242.83,69.52,239.14,72.88,234.57,72.88z M234.57,33.32c-1.63,0-2.93,1.15-2.93,2.59v29.57c0,1.44,1.41,2.59,2.93,2.5
			c1.52,0,2.83-1.15,2.83-2.5V35.82C237.4,34.48,236.1,33.32,234.57,33.32z"/>
		<path class="st6" d="M251.2,100.92H16.04c-5.21,0-9.35-3.75-9.35-8.26v-36.1c0-4.61,4.24-8.26,9.35-8.26h10.43
			c1.52,0,2.72,1.06,2.72,2.4v14.79c0,1.44,1.31,2.59,2.94,2.59c1.63,0,2.93-1.15,2.93-2.59V50.7c0-1.34,1.19-2.4,2.72-2.4h11.3
			c1.52,0,2.72,1.06,2.72,2.4v14.79c0,1.44,1.3,2.59,2.82,2.59c1.63,0,2.94-1.15,2.94-2.5v-0.1V50.7c0-1.34,1.19-2.4,2.72-2.4h11.3
			c1.52,0,2.72,1.06,2.72,2.4v14.79c0,1.44,1.31,2.59,2.94,2.59c1.63,0,2.93-1.15,2.93-2.59V50.7c0-1.34,1.19-2.4,2.72-2.4h100.85
			c1.52,0,2.72,1.06,2.72,2.4v14.79c0,1.44,1.3,2.59,2.82,2.59c1.63,0,2.93-1.15,2.93-2.5v-0.1V50.7c0-1.34,1.2-2.4,2.72-2.4h11.3
			c1.52,0,2.72,1.06,2.72,2.4v14.79c0,1.44,1.31,2.59,2.82,2.59c1.63,0,2.94-1.15,2.94-2.5v-0.1V50.7c0-1.34,1.19-2.4,2.72-2.4h11.3
			c1.52,0,2.72,1.06,2.72,2.4v14.79c0,1.44,1.3,2.59,2.82,2.59c1.63,0,2.93-1.15,2.93-2.5v-0.1V50.7c0-1.34,1.19-2.4,2.72-2.4h11.09
			c5.21,0,9.35,3.75,9.35,8.26v36.1C260.55,97.27,256.42,100.92,251.2,100.92z M16.04,53.1c-2.17,0-3.91,1.54-3.91,3.46v36.1
			c0,1.92,1.74,3.46,3.91,3.46H251.2c2.17,0,3.91-1.54,3.91-3.46v-36.1c0-1.92-1.74-3.46-3.91-3.46h-8.37v12.39
			c0,4.03-3.7,7.39-8.26,7.49c-4.56,0.1-8.37-3.26-8.47-7.3c0-0.1,0-0.1,0-0.19V53.1h-5.87v12.39c0,4.03-3.7,7.39-8.26,7.49
			c-4.57,0.1-8.37-3.26-8.48-7.3c0-0.1,0-0.1,0-0.19V53.1h-5.87v12.39c0,4.03-3.69,7.39-8.26,7.49c-4.56,0.1-8.37-3.26-8.47-7.3
			c0-0.1,0-0.1,0-0.19V53.1h-95.3v12.39c0,4.03-3.7,7.39-8.37,7.39c-4.67,0-8.37-3.26-8.37-7.39V53.1H63.1v12.39
			c0,4.03-3.7,7.39-8.26,7.49c-4.57,0.1-8.37-3.26-8.48-7.3c0-0.1,0-0.1,0-0.19V53.1h-5.87v12.39c0,4.03-3.7,7.39-8.37,7.39
			c-4.57,0-8.37-3.26-8.37-7.39V53.1H16.04z"/>
		<path class="st6" d="M163.51,77.01h-59.66c-1.52,0-2.72-1.06-2.72-2.4s1.19-2.4,2.72-2.4h59.66c1.52,0,2.72,1.06,2.72,2.4
			S165.03,77.01,163.51,77.01z"/>
		<path class="st6" d="M122.86,139.81h-12.28c-4.24,0-7.72-3.07-7.72-6.82v-10.85c0-3.75,3.48-6.82,7.72-6.82h12.28
			c4.24,0,7.72,3.07,7.72,6.82v10.85C130.47,136.73,127.1,139.81,122.86,139.81z M110.58,120.22c-1.19,0-2.28,0.86-2.28,2.02v10.85
			c0,1.06,0.98,2.02,2.28,2.02h12.28c1.19,0,2.28-0.86,2.28-2.02v-10.85c0-1.06-0.98-2.02-2.28-2.02H110.58z"/>
		<path class="st6" d="M156.12,139.81h-12.28c-4.24,0-7.72-3.07-7.72-6.82v-10.85c0-3.75,3.48-6.82,7.72-6.82h12.28
			c4.24,0,7.72,3.07,7.72,6.82v10.85C163.83,136.73,160.35,139.81,156.12,139.81z M143.84,120.22c-1.19,0-2.28,0.86-2.28,2.02v10.85
			c0,1.06,0.98,2.02,2.28,2.02h12.28c1.19,0,2.28-0.86,2.28-2.02v-10.85c0-1.06-0.98-2.02-2.28-2.02H143.84z"/>
		<path class="st6" d="M189.48,139.81H177.2c-4.24,0-7.72-3.07-7.72-6.82v-10.85c0-3.75,3.48-6.82,7.72-6.82h12.28
			c4.24,0,7.72,3.07,7.72,6.82v10.85C197.08,136.83,193.71,139.81,189.48,139.81z M177.2,120.22c-1.19,0-2.28,0.86-2.28,2.02v10.85
			c0,1.06,0.98,2.02,2.28,2.02h12.28c1.2,0,2.28-0.86,2.28-2.02v-10.85c0-1.06-0.98-2.02-2.28-2.02H177.2z"/>
		<path class="st6" d="M56.25,169.28H43.97c-4.24,0-7.72-3.07-7.72-6.82v-10.85c0-3.74,3.48-6.82,7.72-6.82h12.28
			c4.24,0,7.72,3.07,7.72,6.82v10.85C63.86,166.21,60.49,169.28,56.25,169.28z M43.97,149.6c-1.2,0-2.28,0.86-2.28,2.02v10.85
			c0,1.06,0.98,2.02,2.28,2.02h12.28c1.19,0,2.28-0.86,2.28-2.02v-10.85c0-1.06-0.98-2.02-2.28-2.02H43.97z"/>
		<path class="st6" d="M89.5,169.28H77.22c-4.24,0-7.72-3.07-7.72-6.82v-10.85c0-3.74,3.48-6.82,7.72-6.82H89.5
			c4.24,0,7.72,3.07,7.72,6.82v10.85C97.22,166.21,93.74,169.28,89.5,169.28z M77.22,149.6c-1.19,0-2.28,0.86-2.28,2.02v10.85
			c0,1.06,0.98,2.02,2.28,2.02H89.5c1.2,0,2.28-0.86,2.28-2.02v-10.85c0-1.06-0.98-2.02-2.28-2.02H77.22z"/>
		<path class="st6" d="M122.86,169.28h-12.28c-4.24,0-7.72-3.07-7.72-6.82v-10.85c0-3.74,3.48-6.82,7.72-6.82h12.28
			c4.24,0,7.72,3.07,7.72,6.82v10.85C130.47,166.21,127.1,169.28,122.86,169.28z M110.58,149.6c-1.19,0-2.28,0.86-2.28,2.02v10.85
			c0,1.06,0.98,2.02,2.28,2.02h12.28c1.19,0,2.28-0.86,2.28-2.02v-10.85c0-1.06-0.98-2.02-2.28-2.02H110.58z"/>
		<path class="st6" d="M56.25,198.67H43.97c-4.24,0-7.72-3.07-7.72-6.82V181c0-3.75,3.48-6.82,7.72-6.82h12.28
			c4.24,0,7.72,3.07,7.72,6.82v10.85C63.86,195.69,60.49,198.67,56.25,198.67z M43.97,179.08c-1.2,0-2.28,0.86-2.28,2.02v10.85
			c0,1.06,0.98,2.02,2.28,2.02h12.28c1.19,0,2.28-0.86,2.28-2.02V181.1c0-1.06-0.98-2.02-2.28-2.02H43.97z"/>
		<path class="st6" d="M89.5,198.67H77.22c-4.24,0-7.72-3.07-7.72-6.82V181c0-3.75,3.48-6.82,7.72-6.82H89.5
			c4.24,0,7.72,3.07,7.72,6.82v10.85C97.22,195.69,93.74,198.67,89.5,198.67z M77.22,179.08c-1.19,0-2.28,0.86-2.28,2.02v10.85
			c0,1.06,0.98,2.02,2.28,2.02H89.5c1.2,0,2.28-0.86,2.28-2.02V181.1c0-1.06-0.98-2.02-2.28-2.02H77.22z"/>
		<path class="st6" d="M122.86,198.67h-12.28c-4.24,0-7.72-3.07-7.72-6.82V181c0-3.75,3.48-6.82,7.72-6.82h12.28
			c4.24,0,7.72,3.07,7.72,6.82v10.85C130.47,195.69,127.1,198.67,122.86,198.67z M110.58,179.08c-1.19,0-2.28,0.86-2.28,2.02v10.85
			c0,1.06,0.98,2.02,2.28,2.02h12.28c1.19,0,2.28-0.86,2.28-2.02V181.1c0-1.06-0.98-2.02-2.28-2.02H110.58z"/>
		<path class="st6" d="M56.25,228.14H43.97c-4.24,0-7.72-3.07-7.72-6.82v-10.85c0-3.75,3.48-6.82,7.72-6.82h12.28
			c4.24,0,7.72,3.07,7.72,6.82v10.85C63.86,225.07,60.49,228.14,56.25,228.14z M43.97,208.46c-1.2,0-2.28,0.86-2.28,2.02v10.85
			c0,1.06,0.98,2.02,2.28,2.02h12.28c1.19,0,2.28-0.86,2.28-2.02v-10.85c0-1.06-0.98-2.02-2.28-2.02H43.97z"/>
		<path class="st6" d="M89.5,228.14H77.22c-4.24,0-7.72-3.07-7.72-6.82v-10.85c0-3.75,3.48-6.82,7.72-6.82H89.5
			c4.24,0,7.72,3.07,7.72,6.82v10.85C97.22,225.07,93.74,228.14,89.5,228.14z M77.22,208.46c-1.19,0-2.28,0.86-2.28,2.02v10.85
			c0,1.06,0.98,2.02,2.28,2.02H89.5c1.2,0,2.28-0.86,2.28-2.02v-10.85c0-1.06-0.98-2.02-2.28-2.02H77.22z"/>
		<path class="st6" d="M122.86,228.14h-12.28c-4.24,0-7.72-3.07-7.72-6.82v-10.85c0-3.75,3.48-6.82,7.72-6.82h12.28
			c4.24,0,7.72,3.07,7.72,6.82v10.85C130.47,225.07,127.1,228.14,122.86,228.14z M110.58,208.46c-1.19,0-2.28,0.86-2.28,2.02v10.85
			c0,1.06,0.98,2.02,2.28,2.02h12.28c1.19,0,2.28-0.86,2.28-2.02v-10.85c0-1.06-0.98-2.02-2.28-2.02H110.58z"/>
		<path class="st6" d="M222.73,139.81h-12.28c-4.24,0-7.72-3.07-7.72-6.82v-10.85c0-3.75,3.48-6.82,7.72-6.82h12.28
			c4.24,0,7.72,3.07,7.72,6.82v10.85C230.45,136.73,226.97,139.81,222.73,139.81z M210.45,120.22c-1.19,0-2.28,0.86-2.28,2.02v10.85
			c0,1.06,0.98,2.02,2.28,2.02h12.28c1.19,0,2.28-0.86,2.28-2.02v-10.85c0-1.06-0.98-2.02-2.28-2.02H210.45z"/>
		<path class="st6" d="M154.59,169.28h-10.76c-4.24,0-7.72-3.07-7.72-6.82v-10.85c0-3.74,3.48-6.82,7.72-6.82h12.28
			c4.24,0,7.72,3.07,7.72,6.82v8.26c0,0.67-0.32,1.25-0.76,1.63c-2.28,2.11-4.35,4.32-6.2,6.72
			C156.33,168.9,155.46,169.28,154.59,169.28z M143.84,149.6c-1.19,0-2.28,0.86-2.28,2.02v10.85c0,1.06,0.98,2.02,2.28,2.02h9.35
			c1.63-1.92,3.37-3.84,5.21-5.57v-7.3c0-1.06-0.98-2.02-2.28-2.02H143.84z"/>
		<path class="st6" d="M204.26,252.72H21.58c-5.21,0-9.35-3.75-9.35-8.26V98.52c0-1.34,1.19-2.4,2.72-2.4H252.4
			c1.52,0,2.72,1.06,2.72,2.4v66.35c0,1.34-1.19,2.4-2.72,2.4c-0.87,0-1.63-0.38-2.17-0.96c-19.23-22.37-55.31-26.88-80.63-9.89
			c-25.32,17-30.43,48.87-11.19,71.25c10.87,12.67,27.93,20.16,45.97,20.16c1.52,0,2.72,1.06,2.72,2.4
			C207.08,251.57,205.78,252.72,204.26,252.72z M17.67,100.92v143.55c0,1.92,1.74,3.46,3.91,3.46h157.14
			c-31.84-12.48-46.18-45.42-31.95-73.55c10.1-20.07,32.71-33.03,57.59-33.03c17.17-0.1,33.58,6.15,45.42,16.99v-57.42H17.67z"/>
		<path class="st6" d="M204.26,193.96c-1.52,0-2.72-1.06-2.72-2.4v-26.4c0-1.34,1.19-2.4,2.72-2.4c1.52,0,2.72,1.06,2.72,2.4v26.4
			C206.97,192.9,205.78,193.96,204.26,193.96z"/>
		<path class="st6" d="M183.39,215.09c-1.52,0-2.72-1.06-2.72-2.4c0-0.67,0.33-1.34,0.98-1.82l16.84-12.48
			c1.19-0.86,2.82-0.67,3.8,0.29c0.98,1.06,0.76,2.5-0.33,3.36l-16.84,12.48C184.59,214.89,184.04,215.09,183.39,215.09z"/>
		<path class="st6" d="M180.24,135.1c-0.76,0-1.52-0.29-1.95-0.77l-4.57-4.42c-0.98-0.96-0.98-2.5,0.22-3.36
			c1.09-0.86,2.82-0.86,3.8,0.19l2.72,2.59l8.47-7.49c1.09-0.96,2.83-0.86,3.8,0.1c0.98,0.96,0.98,2.4,0,3.36l-10.43,9.22
			C181.65,134.81,181,135.1,180.24,135.1z"/>
		<path class="st6" d="M213.93,135.1c-0.76,0-1.52-0.29-1.95-0.77l-4.57-4.42c-0.98-0.96-0.98-2.5,0.22-3.36
			c1.09-0.86,2.82-0.86,3.8,0.19l2.72,2.59l8.47-7.49c1.09-0.96,2.83-0.86,3.8,0.1c0.98,0.96,0.98,2.4,0,3.36l-10.43,9.22
			C215.34,134.81,214.69,135.1,213.93,135.1z"/>
		<path class="st6" d="M47.66,163.91c-0.76,0-1.52-0.29-1.95-0.77l-4.57-4.42c-0.98-0.96-0.98-2.5,0.22-3.36
			c1.09-0.86,2.82-0.86,3.8,0.19l2.72,2.59l8.47-7.49c1.09-0.96,2.72-0.96,3.8-0.1c1.09,0.96,1.09,2.4,0.11,3.36c0,0,0,0-0.11,0.1
			l-10.43,9.22C49.08,163.62,48.42,163.91,47.66,163.91z"/>
		<path class="st6" d="M80.26,163.91c-0.76,0-1.52-0.29-1.95-0.77l-4.57-4.42c-0.98-0.96-0.98-2.5,0.22-3.36
			c1.09-0.86,2.82-0.86,3.8,0.19l2.72,2.59l8.47-7.49c1.09-0.96,2.72-0.96,3.8-0.1c1.09,0.86,1.09,2.4,0.11,3.36c0,0,0,0-0.11,0.1
			l-10.43,9.22C81.68,163.62,81.03,163.91,80.26,163.91z"/>
		<path class="st6" d="M113.95,163.91c-0.76,0-1.52-0.29-1.95-0.77l-4.57-4.42c-0.98-0.96-0.98-2.5,0.22-3.36
			c1.09-0.86,2.82-0.86,3.8,0.19l2.72,2.59l8.47-7.49c1.09-0.96,2.72-0.96,3.8-0.1s1.09,2.4,0.11,3.36c0,0,0,0-0.11,0.1l-10.43,9.22
			C115.36,163.62,114.71,163.91,113.95,163.91z"/>
		<path class="st6" d="M204.26,252.72c-34.77,0-63.03-24.96-63.03-55.69s28.25-55.69,63.03-55.69s63.03,24.96,63.03,55.69
			S239.03,252.72,204.26,252.72z M204.26,146.14c-31.84,0-57.59,22.76-57.59,50.89s25.75,50.89,57.59,50.89
			c31.84,0,57.59-22.76,57.59-50.89S236.1,146.14,204.26,146.14z"/>
		<path class="st6" d="M204.26,240.72c-27.28,0-49.44-19.59-49.44-43.69s22.17-43.69,49.44-43.69c27.28,0,49.44,19.59,49.44,43.69
			S231.53,240.72,204.26,240.72z M204.26,158.15c-24.34,0-44.01,17.38-44.01,38.89s19.67,38.89,44.01,38.89
			c24.34,0,44.01-17.38,44.01-38.89S228.6,158.15,204.26,158.15z"/>
		<path class="st6" d="M204.26,204.24c-4.46,0-8.15-3.26-8.15-7.2c0-3.94,3.69-7.2,8.15-7.2c4.46,0,8.15,3.26,8.15,7.2
			C212.41,200.97,208.82,204.24,204.26,204.24z M204.26,194.63c-1.52,0-2.72,1.06-2.72,2.4c0,1.34,1.19,2.4,2.72,2.4
			c1.52,0,2.72-1.06,2.72-2.4C206.97,195.69,205.78,194.63,204.26,194.63z"/>
	</g>
</g>
<rect x="314.44" y="86.43" class="st7" width="476.23" height="143.44"/>
<text transform="matrix(1 0 0 1 314.4427 172.7569)" class="st8 st9 st10">Reservations</text>
</svg>
