<?xml version="1.0" encoding="utf-8"?>
<!-- Generator: Adobe Illustrator 23.0.5, SVG Export Plug-In . SVG Version: 6.00 Build 0)  -->
<svg version="1.1" id="Layer_1" xmlns="http://www.w3.org/2000/svg" xmlns:xlink="http://www.w3.org/1999/xlink" x="0px" y="0px"
	 viewBox="0 0 1101 244" style="enable-background:new 0 0 1101 244;" xml:space="preserve">
<style type="text/css">
	.st0{fill:#23AAE2;}
	.st1{fill:#65C6BC;}
	.st2{fill:#4DC8F2;}
	.st3{fill:#F3B845;}
	.st4{fill:none;}
	.st5{fill:#EDA729;}
	.st6{font-family:'AgencyFB-Reg';}
	.st7{font-size:105px;}
</style>
<g>
	<g>
		<path class="st0" d="M250.55,67.47h29.27v164.85h-29.27V67.47z"/>
		<path class="st0" d="M196.34,104.42h29.27v127.9h-29.27V104.42z"/>
		<path class="st0" d="M142.13,129.76h29.27v102.56h-29.27V129.76z"/>
		<path class="st0" d="M118.73,128.57v64.16L67.79,207.9l-0.97-0.29v-63.96l0.07-0.18l0.9,0.26L118.73,128.57z"/>
	</g>
	<path class="st1" d="M118.73,128.57l-50.94,15.16l-0.9-0.26v-0.01l-50.04-14.89l50.94-15.16L118.73,128.57z"/>
	<path class="st2" d="M66.89,143.46L66.89,143.46l-0.07,0.19v63.96l-49.97-14.87v-64.16L66.89,143.46z"/>
	<path class="st3" d="M287.1,227.86H11.9c-2.71,0-4.9,2.02-4.9,4.52s2.19,4.52,4.9,4.52h275.2c2.71,0,4.9-2.02,4.9-4.52
		S289.81,227.86,287.1,227.86z"/>
	<path class="st3" d="M125.44,95.85c0.17,0,0.34-0.01,0.51-0.03c0.93-0.09,23.18-2.32,50.63-14.01
		c23.13-9.85,54.01-28.42,75.36-61.96l5.98,27.6c0.53,2.45,3.11,4.04,5.76,3.55c2.66-0.49,4.38-2.87,3.84-5.32l-8.47-39.06
		c-0.48-1.4-1.58-2.54-3.02-3.15c-1.44-0.61-3.1-0.63-4.56-0.05l-40.53,7.68c-1.73,0.31-3.14,1.45-3.71,3
		c-0.56,1.54-0.18,3.24,0.99,4.45c1.17,1.21,2.96,1.75,4.69,1.4l31.37-5.95c-8.12,13.1-18.49,24.9-30.7,34.94
		c-12.22,9.97-25.97,18.23-40.79,24.51c-26.01,11.14-47.61,13.34-47.85,13.36c-2.59,0.25-4.52,2.32-4.39,4.73
		C120.68,93.97,122.83,95.85,125.44,95.85L125.44,95.85z"/>
	<rect x="333" y="96" class="st4" width="540" height="104"/>
	<text transform="matrix(1 0 0 1 333 176.2192)" class="st5 st6 st7">Today’s analysis</text>
</g>
</svg>
